<?xml version="1.0" encoding="utf-8"?>
<!-- Generator: Adobe Illustrator 16.0.0, SVG Export Plug-In . SVG Version: 6.00 Build 0)  -->
<!DOCTYPE svg PUBLIC "-//W3C//DTD SVG 1.1//EN" "http://www.w3.org/Graphics/SVG/1.1/DTD/svg11.dtd">
<svg version="1.1" id="Layer_1" xmlns="http://www.w3.org/2000/svg" xmlns:xlink="http://www.w3.org/1999/xlink" x="0px" y="0px"
	 width="200px" height="87.5px" viewBox="0 0 200 87.5" enable-background="new 0 0 200 87.5" xml:space="preserve">
<path d="M143.749,54.704c0,0.051,0,0.081,0,0.118c-0.001,1.318,0.004,4.436,0.004,5.189c0,1.124-0.841,1.791-2.759,1.791
	c-0.834,0-23.809,0.017-25.591,0.017s-2.866-0.801-2.866-1.93c0,0-0.111-23.943-0.111-26.067l-0.005,0.001c0-0.197,0-0.396,0-0.6
	c0-4.555-1.632-14.38-17.383-14.38c-7.32,0-11.588,2.123-14.062,4.852c-2.475-2.729-6.742-4.852-14.062-4.852
	c-15.751,0-17.383,9.825-17.383,14.38c0,0,0,32.58,0,33.371c0,2.097,6.722,2.043,6.722,0c0-0.709,0-31.118,0-31.118
	c0-2.703,0.221-4.649,0.658-5.838c0.438-1.188,1.232-2.146,2.383-2.872c1.027-0.647,14.214-0.647,15.241,0
	c1.15,0.726,1.945,1.684,2.383,2.872c0.438,1.189,0.658,3.135,0.658,5.838c0,0-0.002,29.076,0,31.118
	c0,1.311,2.659,1.795,4.632,1.456c1.201-0.193,2.17-0.681,2.17-1.456c0-0.709,0-31.118,0-31.118c0-2.703,0.221-4.649,0.658-5.838
	c0.438-1.188,1.232-2.146,2.383-2.872c1.027-0.647,14.214-0.647,15.241,0c1.15,0.726,1.945,1.684,2.383,2.872
	c0.438,1.189,0.658,3.135,0.658,5.838c-0.001,3.076-0.015,9.076,0,24.118c0,0.008,0.004,0.014,0.004,0.021c0,1.046,0,2.03,0,2.912
	c0,5.621,6.883,5.47,6.883,5.47c0.381,0.002,23.45,0.384,31.054-0.046c4.877-0.275,6.829-0.893,6.829-5.768c0-1.25,0-2.109,0-2.109
	s0-4.58,0-5.371C150.47,52.607,143.749,52.662,143.749,54.704z"/>
<g id="orig" display="none">
	<g display="inline">
		<g>
			<path d="M81.422,71.293c0-0.918,0-30.371,0-30.371c0-4.555-1.632-14.38-17.383-14.38s-17.382,9.825-17.382,14.38
				c0,0,0,29.58,0,30.371c0,2.098,6.721,2.043,6.721,0c0-0.709,0-28.118,0-28.118c0-2.703,0.221-4.649,0.658-5.838
				c0.438-1.188,1.232-2.146,2.383-2.872c1.027-0.647,14.214-0.647,15.241,0c1.15,0.726,1.945,1.684,2.383,2.872
				c0.438,1.189,0.658,3.135,0.658,5.838c0,0-0.002,26.075,0,28.118C74.701,73.375,81.422,73.375,81.422,71.293z"/>
		</g>
	</g>
	<path display="inline" d="M109.547,64.293c0-13.918,0-16.918,0-23.371c0-4.555-1.632-14.38-17.383-14.38
		s-17.382,9.825-17.382,14.38c0,0,0,29.58,0,30.371c0,2.098,6.721,2.043,6.721,0c0-0.709,0-28.118,0-28.118
		c0-2.703,0.221-4.649,0.658-5.838c0.438-1.188,1.232-2.146,2.383-2.872c1.027-0.647,14.214-0.647,15.241,0
		c1.15,0.726,1.945,1.684,2.383,2.872c0.438,1.189,0.658,3.135,0.658,5.838c-0.001,3.075-0.015,6.075,0,21.118
		C102.826,66.375,109.547,66.375,109.547,64.293z"/>
	<path display="inline" fill="#F26522" d="M102.831,43.773c0,0.702,0,15.787,0,23.453c0,5.621,6.882,5.469,6.882,5.469
		c0.381,0.002,13.45,0.385,21.054-0.045c4.877-0.275,6.829-0.893,6.829-5.768c0-1.25,0-2.109,0-2.109s0-1.58,0-2.371
		c0-2.097-6.721-2.043-6.721,0c0,0.709,0,0.119,0,0.119c-0.001,2.703,0.108,2.984-1.042,3.709c-1.027,0.648-18.213,0.648-19.24,0
		c-1.15-0.725-1.041-22.007-1.041-24.71L102.831,43.773z"/>
</g>
</svg>
