<?xml version="1.0" encoding="utf-8"?>
<!-- Generator: Adobe Illustrator 16.0.0, SVG Export Plug-In . SVG Version: 6.00 Build 0)  -->
<!DOCTYPE svg PUBLIC "-//W3C//DTD SVG 1.1//EN" "http://www.w3.org/Graphics/SVG/1.1/DTD/svg11.dtd">
<svg version="1.1" xmlns="http://www.w3.org/2000/svg" xmlns:xlink="http://www.w3.org/1999/xlink" x="0px" y="0px" width="770px"
	 height="574px" viewBox="0 0 770 574" enable-background="new 0 0 770 574" xml:space="preserve">
<g id="Layer_3" display="none">
	<rect x="-13" y="-15" display="inline" fill="#0A0C16" width="780" height="562"/>
</g>
<g id="Layer_2" display="none">
	<g display="inline">
		
			<image overflow="visible" width="751" height="533" xlink:href="../../../../../../Users/user/Documents/Everything IT/ myWork/moizlatif website/ml_logo.png"  transform="matrix(0.9999 0 0 0.9999 0.0469 0.0332)">
		</image>
	</g>
</g>
<g id="Layer_4">
	<polygon display="none" opacity="0.5" fill="#7481BF" points="110,445 9,521 9,13 110,13 110,137 	"/>
	<path fill="#FFFFFF" d="M207,338h106L469,13H354l-95,209L168,13H9v508c0,0,101,0,101-76s0-308,0-308L207,338z"/>
	<path fill="#FFFFFF" d="M397.5,543V229.792L491,35v417h272c0,0-11,91-73,91S397.5,543,397.5,543z"/>
</g>
</svg>
